<svg xmlns="http://www.w3.org/2000/svg" viewBox="0 0 39 39"><path d="M32.47 38.651H6.273C2.814 38.651 0 35.843 0 32.391V6.26C0 2.808 2.814 0 6.273 0H32.47c3.458 0 6.272 2.808 6.272 6.26v26.132c0 3.452-2.814 6.259-6.272 6.259Zm-15.227-9.545-.15-11.634 8.962-2.856.024 8.218a4.754 4.754 0 0 0-1.357-.198c-2.257 0-4.12 1.492-4.12 3.38 0 1.89 1.862 3.381 4.12 3.381 2.259 0 4.122-1.49 4.122-3.38L28.691 7l-14.214 4.962v13.962a4.75 4.75 0 0 0-1.355-.198c-2.258 0-4.122 1.491-4.122 3.38 0 1.89 1.863 3.38 4.122 3.38 2.258 0 4.12-1.49 4.12-3.38Z"/></svg>